<?xml version="1.0" encoding="UTF-8" standalone="no"?>
<svg width="504px" height="701px" viewBox="0 0 504 701" version="1.1" xmlns="http://www.w3.org/2000/svg" xmlns:xlink="http://www.w3.org/1999/xlink">
    <!-- Generator: Sketch 3.8.3 (29802) - http://www.bohemiancoding.com/sketch -->
    <title>Group</title>
    <desc>Created with Sketch.</desc>
    <defs>
        <rect id="path-1" x="0.191529501" y="0" width="375.616941" height="565"></rect>
        <filter x="-50%" y="-50%" width="200%" height="200%" filterUnits="objectBoundingBox" id="filter-2">
            <feOffset dx="0" dy="27" in="SourceAlpha" result="shadowOffsetOuter1"></feOffset>
            <feGaussianBlur stdDeviation="12" in="shadowOffsetOuter1" result="shadowBlurOuter1"></feGaussianBlur>
            <feColorMatrix values="0 0 0 0 0   0 0 0 0 0   0 0 0 0 0  0 0 0 0.24 0" type="matrix" in="shadowBlurOuter1" result="shadowMatrixOuter1"></feColorMatrix>
            <feOffset dx="0" dy="40" in="SourceAlpha" result="shadowOffsetOuter2"></feOffset>
            <feGaussianBlur stdDeviation="38.5" in="shadowOffsetOuter2" result="shadowBlurOuter2"></feGaussianBlur>
            <feColorMatrix values="0 0 0 0 0   0 0 0 0 0   0 0 0 0 0  0 0 0 0.19 0" type="matrix" in="shadowBlurOuter2" result="shadowMatrixOuter2"></feColorMatrix>
            <feMerge>
                <feMergeNode in="shadowMatrixOuter1"></feMergeNode>
                <feMergeNode in="shadowMatrixOuter2"></feMergeNode>
            </feMerge>
        </filter>
    </defs>
    <g id="Page-1" stroke="none" stroke-width="1" fill="none" fill-rule="evenodd">
        <g id="Desktop-HD" transform="translate(0.000000, -194.000000)">
            <g id="Group" transform="translate(52.000000, 230.000000)">
                <g id="paper-shadow-z=&quot;5&quot;">
                    <use fill="black" fill-opacity="1" filter="url(#filter-2)" xlink:href="#path-1"></use>
                    <use fill="#F2B52E" fill-rule="evenodd" xlink:href="#path-1"></use>
                </g>
                <text id="PUBLISHER" font-family="ArialRoundedMTBold, Arial Rounded MT Bold" font-size="32" font-weight="normal" fill="#FFFFFF">
                    <tspan x="93.3125704" y="508">PUBLISHER</tspan>
                </text>
                <path d="M115.794707,327.333333 C115.783489,327.183355 115.777778,327.031843 115.777778,326.878999 L115.777778,294 L91.0021588,294 C89.3479908,294 88,292.655735 88,290.9975 L88,252.558055 C88,250.897798 89.3441123,249.555556 91.0021588,249.555556 L115.777778,249.555556 L115.777778,205.565446 C115.777778,202.24907 118.464019,199.555556 121.777665,199.555556 L254.222335,199.555556 C257.52912,199.555556 260.222222,202.246275 260.222222,205.565446 L260.222222,249.555556 L284.997841,249.555556 C286.652009,249.555556 288,250.899821 288,252.558055 L288,290.9975 C288,292.657758 286.655888,294 284.997841,294 L260.222222,294 L260.222222,326.878999 C260.222222,327.031834 260.216517,327.183346 260.205308,327.333333 L262.774842,327.333333 C264.432991,327.333333 265.777778,328.677446 265.777778,330.335492 L265.777778,357.664508 C265.777778,359.318676 264.433317,360.666667 262.774842,360.666667 L113.225158,360.666667 C111.567009,360.666667 110.222222,359.322554 110.222222,357.664508 L110.222222,330.335492 C110.222222,328.681324 111.566683,327.333333 113.225158,327.333333 L115.794707,327.333333 Z M147.547611,144 C145.342859,144 143.555556,145.797321 143.555556,148.002878 L143.555556,184.441566 C143.555556,186.652295 145.351232,188.444444 147.547611,188.444444 L228.452389,188.444444 C230.657141,188.444444 232.444444,186.647123 232.444444,184.441566 L232.444444,148.002878 C232.444444,145.79215 230.648768,144 228.452389,144 L147.547611,144 Z M156.661868,155.111111 C155.559949,155.111111 154.666667,156.009772 154.666667,157.102742 L154.666667,175.341703 C154.666667,176.44165 155.558675,177.333333 156.661868,177.333333 L219.338132,177.333333 C220.440051,177.333333 221.333333,176.434673 221.333333,175.341703 L221.333333,157.102742 C221.333333,156.002795 220.441325,155.111111 219.338132,155.111111 L156.661868,155.111111 Z M130.885953,210.666667 C128.678435,210.666667 126.888889,212.462129 126.888889,214.66903 L126.888889,322.448875 C126.888889,324.659319 128.688999,326.451238 130.886957,326.451238 L242.03081,326.451238 C244.238882,326.451238 246.076674,324.655775 246.135423,322.448875 L249.004567,214.66903 C249.063409,212.458586 247.312444,210.666667 245.114047,210.666667 L130.885953,210.666667 Z M100.116745,260.666667 C99.5613487,260.666667 99.1111111,261.110564 99.1111111,261.66468 L99.1111111,281.890875 C99.1111111,282.442063 99.5604414,282.888889 100.116745,282.888889 L109.216588,282.888889 C109.771985,282.888889 110.222222,282.444992 110.222222,281.890875 L110.222222,261.66468 C110.222222,261.113493 109.772892,260.666667 109.216588,260.666667 L100.116745,260.666667 Z M266.783412,260.666667 C266.228015,260.666667 265.777778,261.110564 265.777778,261.66468 L265.777778,281.890875 C265.777778,282.442063 266.227108,282.888889 266.783412,282.888889 L275.883255,282.888889 C276.438651,282.888889 276.888889,282.444992 276.888889,281.890875 L276.888889,261.66468 C276.888889,261.113493 276.439559,260.666667 275.883255,260.666667 L266.783412,260.666667 Z M122.329907,338.444444 C121.779515,338.444444 121.333333,338.893775 121.333333,339.450078 L121.333333,348.549922 C121.333333,349.105318 121.789986,349.555556 122.329907,349.555556 L253.670093,349.555556 C254.220485,349.555556 254.666667,349.106225 254.666667,348.549922 L254.666667,339.450078 C254.666667,338.894682 254.210014,338.444444 253.670093,338.444444 L122.329907,338.444444 Z M193.555556,388.595245 L249.111111,421.777778 L182.424998,421.777778 L146.171498,421.777778 L182.424998,400.398232 L182.424998,421.777778 L126.888889,421.777778 L182.444444,388.595245 L182.444444,360.666667 L193.555556,360.666667 L193.555556,388.595245 Z M182.444444,188.444444 L182.444444,199.555556 L193.555556,199.555556 L193.555556,188.444444 L182.444444,188.444444 Z" id="office_chair_L" fill="#FFFFFF"></path>
            </g>
        </g>
    </g>
</svg>